<svg width="64" height="72" viewBox="0 0 64 72" fill="none" xmlns="http://www.w3.org/2000/svg">
<path d="M12.7991 11.0995L32 0L51.201 11.0995L44.001 14.999L32 8.09856L19.6995 14.999L12.7991 11.0995ZM50.8986 24.9005L43.9981 21.001L32 27.9014L19.6995 21.001L12.7991 24.9005V33.0019L24.8 39.9024V54.0029L31.7005 58.2019L38.601 54.0029V40.2019L50.6019 33.3014V24.9005H50.8986ZM50.8986 47.0995V39.001L44.001 43.2V50.999L50.8986 47.0995ZM55.9991 49.801L43.9981 56.7014V64.8L63.1991 53.7005V31.5014L55.9991 36V49.801ZM49.1015 18L56.0019 22.199V30.3005L62.9024 26.1014V18L56.0019 13.801L49.1015 18ZM24.8 59.6995V67.7981L31.7005 71.9971L38.601 67.7981V59.6995L31.7005 63.8985L24.8 59.6995ZM12.7991 47.0995L19.6995 50.999V42.9005L12.7991 38.7014V47.0995ZM24.8 18L31.7005 22.199L38.9005 18L32 13.801L24.8 18ZM7.69858 22.199L14.8986 18L7.69858 13.801L0.800975 18V26.0986L7.70146 30.2976V22.199H7.69858ZM7.69858 36L0.798096 31.801V54L19.9991 65.0995V57.0009L7.9981 50.1005V36H7.69858Z" fill="#F0B90B"/>
</svg>
