<svg width="50" height="40" viewBox="0 0 50 40" fill="none" xmlns="http://www.w3.org/2000/svg">
<path d="M25.907 0.769775C25.9498 1.83342 25.9924 2.89706 26.0353 3.9607C25.2072 3.9607 24.7933 3.9607 23.9652 3.9607C24.008 2.89706 24.0508 1.83342 24.0934 0.769775C22.4141 0.769775 20.735 0.769775 19.0558 0.769775C15.6801 13.59 12.3038 26.41 8.92822 39.2304C13.4682 39.2304 18.0083 39.2304 22.5482 39.2304C22.5909 38.1667 22.6336 37.103 22.6764 36.0395C24.2257 36.0395 25.7749 36.0395 27.324 36.0395C27.3671 37.1031 27.4097 38.1667 27.4523 39.2304C31.9923 39.2304 36.5322 39.2304 41.0722 39.2304C37.6965 26.4102 34.3204 13.5901 30.9447 0.769775C29.2656 0.769775 27.5863 0.769775 25.907 0.769775ZM23.773 8.73842C24.591 8.73842 25.4091 8.73798 26.2272 8.7382C26.346 11.6958 26.4647 14.6537 26.5837 17.6112C25.528 17.6112 24.4724 17.6112 23.4165 17.6112C23.5357 14.6538 23.6543 11.696 23.773 8.73842ZM22.8682 31.2617C22.9869 28.3042 23.1059 25.3465 23.2247 22.389C24.4084 22.389 25.592 22.3888 26.7755 22.3888C26.8944 25.3463 27.0133 28.3042 27.132 31.2617C25.7109 31.2617 24.2895 31.2617 22.8682 31.2617Z" fill="white" fill-opacity="0.6"/>
<path d="M34.2468 0.769775C33.5608 0.769775 33.2177 0.769775 32.5317 0.769775C36.8093 13.59 41.0858 26.4102 45.3635 39.2304C46.909 39.2304 48.4547 39.2304 50.0002 39.2304C44.7492 26.41 39.498 13.59 34.2468 0.769775Z" fill="white" fill-opacity="0.6"/>
<path d="M15.7534 0.769775C10.5022 13.5901 5.2508 26.41 0 39.2304C1.54562 39.2304 3.09113 39.2304 4.63675 39.2304C8.91394 26.4102 13.191 13.5901 17.4684 0.769775C16.7825 0.769775 16.4394 0.769775 15.7534 0.769775Z" fill="white" fill-opacity="0.6"/>
</svg>
